<?xml version="1.0" standalone="no"?>
<!DOCTYPE svg PUBLIC "-//W3C//DTD SVG 20010904//EN"
 "http://www.w3.org/TR/2001/REC-SVG-20010904/DTD/svg10.dtd">
<svg version="1.0" xmlns="http://www.w3.org/2000/svg"
 width="1024.000000pt" height="1024.000000pt" viewBox="0 0 1024.000000 1024.000000"
 preserveAspectRatio="xMidYMid meet">
<metadata>
Created by potrace 1.15, written by Peter Selinger 2001-2017
</metadata>
<g transform="translate(0.000000,1024.000000) scale(0.100000,-0.100000)"
fill="#000000" stroke="none">
<path d="M4455 10230 c-16 -4 -56 -8 -88 -9 -48 -1 -57 -4 -55 -18 4 -23 -29
-31 -128 -32 -74 -1 -83 -3 -100 -26 -15 -20 -27 -25 -66 -25 -57 0 -86 -9
-67 -21 16 -9 -29 -29 -65 -29 -42 0 -88 -12 -75 -20 7 -5 -6 -15 -36 -29 -26
-12 -51 -21 -56 -21 -5 0 -9 -32 -9 -71 0 -46 4 -68 10 -64 21 13 40 -17 40
-64 0 -34 3 -42 10 -31 17 24 40 -16 40 -68 0 -33 3 -43 14 -39 23 9 36 -15
36 -66 0 -42 2 -48 17 -43 22 9 33 -10 33 -61 0 -39 2 -43 25 -43 22 0 24 -4
27 -57 3 -50 6 -58 23 -58 16 0 21 -8 25 -45 4 -36 9 -44 23 -42 20 3 23 -4
32 -82 4 -36 10 -54 15 -46 13 21 27 3 34 -45 4 -26 12 -43 17 -39 23 14 39
-19 39 -80 0 -44 3 -57 10 -46 9 13 12 12 25 -4 8 -11 15 -35 15 -53 0 -26 3
-31 16 -26 24 9 34 -15 34 -84 0 -53 2 -61 16 -56 21 8 34 -14 34 -59 0 -30 4
-37 22 -40 17 -2 24 -12 28 -33 l5 -30 230 0 230 0 3 23 3 22 279 0 279 0 3
-22 3 -23 230 0 230 0 3 28 c2 15 8 28 13 28 5 1 15 2 22 3 7 0 15 23 18 54 8
62 13 69 34 52 13 -11 15 -5 15 53 0 65 16 97 40 82 6 -4 10 7 10 27 0 19 7
43 15 54 13 16 16 17 25 4 7 -11 10 1 10 45 0 65 10 90 31 83 10 -3 17 9 24
41 8 33 15 46 27 45 13 -1 19 10 23 45 4 25 7 53 8 61 1 8 11 15 22 15 16 0
21 8 25 45 4 37 9 45 25 45 17 0 21 8 25 60 4 53 8 60 28 63 18 3 22 10 22 40
0 46 11 65 33 56 15 -5 17 1 17 43 0 51 13 75 36 66 11 -4 14 6 14 38 0 52 12
74 34 66 13 -5 16 1 16 34 0 49 15 80 35 73 12 -5 15 5 15 59 l0 64 -47 18
c-54 20 -75 34 -52 36 24 2 -34 17 -68 18 -45 1 -91 20 -74 30 19 12 -10 21
-67 21 -39 0 -51 5 -66 25 -17 23 -26 25 -100 26 -98 1 -132 10 -128 31 2 13
-11 18 -65 23 -100 10 -1373 14 -1408 5z"/>
<path d="M2867 9653 c-10 -3 -22 -16 -27 -29 -6 -14 -18 -24 -30 -24 -13 0
-22 -9 -26 -25 -5 -21 -12 -25 -45 -25 -32 0 -42 -5 -51 -24 -6 -14 -20 -26
-32 -28 -13 -2 -22 -12 -24 -25 -3 -18 -10 -23 -32 -23 -20 0 -27 -5 -26 -17
0 -10 -9 -19 -24 -23 -16 -4 -26 -14 -28 -29 -3 -17 -9 -22 -23 -18 -10 3 -19
2 -19 -3 0 -4 -11 -11 -25 -14 -16 -4 -25 -13 -25 -26 0 -13 -9 -22 -25 -26
-15 -4 -28 -16 -31 -30 -4 -13 -15 -24 -27 -26 -14 -2 -23 -11 -25 -25 -3 -17
-10 -23 -28 -23 -19 0 -24 -5 -24 -25 0 -20 -5 -25 -25 -25 -20 0 -25 -5 -25
-25 0 -20 -5 -25 -25 -25 -20 0 -25 -5 -25 -25 0 -24 -9 -30 -37 -26 -8 1 -13
-9 -13 -24 0 -23 -8 -29 -37 -26 -6 1 -13 -11 -15 -26 -2 -22 -8 -28 -25 -27
-18 0 -23 -5 -23 -23 0 -22 -3 -25 -32 -27 -7 -1 -18 -14 -24 -31 -7 -18 -18
-29 -28 -29 -9 1 -19 -8 -22 -22 -6 -22 -15 -28 -36 -25 -4 0 -12 -17 -18 -39
-8 -30 -16 -40 -28 -38 -13 2 -18 -6 -20 -34 -3 -36 -10 -42 -39 -39 -6 1 -13
-11 -15 -26 -2 -20 -9 -29 -25 -31 -15 -2 -23 -10 -23 -23 0 -11 -5 -29 -11
-40 -8 -16 -13 -18 -25 -8 -12 10 -14 -2 -14 -84 0 -93 1 -95 25 -101 16 -4
25 -13 25 -26 0 -13 7 -20 20 -20 12 0 25 -10 31 -24 12 -25 35 -36 77 -36 17
0 22 -6 22 -26 0 -21 4 -24 20 -19 15 5 23 0 32 -20 6 -14 22 -28 34 -31 13
-4 24 -15 26 -27 2 -18 11 -23 48 -27 37 -4 46 -9 48 -27 2 -17 10 -23 27 -23
17 0 25 -6 27 -22 2 -15 11 -24 25 -26 13 -2 24 -13 27 -27 5 -19 15 -25 51
-31 35 -5 45 -10 45 -25 0 -13 7 -19 24 -19 18 0 25 -6 28 -22 2 -18 15 -27
50 -38 32 -10 47 -20 45 -30 -1 -9 6 -16 18 -16 11 -1 26 -2 33 -3 6 -1 12
-12 12 -26 0 -20 5 -25 24 -25 18 0 26 -6 28 -22 2 -11 11 -22 21 -24 11 -1
20 -4 20 -6 18 -35 29 -44 63 -48 31 -4 40 -10 42 -27 2 -16 10 -23 27 -23 16
0 25 -7 29 -25 4 -16 13 -25 26 -25 10 0 22 -4 25 -10 3 -5 15 -10 27 -10 14
0 18 -5 14 -15 -3 -8 0 -15 7 -16 7 -1 21 -2 32 -3 12 0 21 -9 23 -23 2 -12
13 -23 25 -27 12 -3 27 -15 32 -28 8 -19 19 -24 59 -26 68 -4 94 4 98 31 2 13
11 23 24 25 13 2 23 14 30 35 6 21 15 32 26 31 13 -1 19 8 24 35 9 55 12 62
31 59 14 -2 19 6 23 37 4 32 10 41 27 43 16 2 23 11 25 35 2 24 8 33 25 35 14
2 23 11 25 25 2 14 11 23 25 25 14 2 23 11 25 25 2 16 10 22 26 21 18 0 22 5
22 28 0 27 3 30 33 32 6 1 14 10 17 21 3 11 16 21 28 23 13 2 22 10 22 21 0
22 25 45 38 37 6 -3 13 5 16 18 4 15 15 26 29 28 14 2 23 11 25 25 2 14 11 23
25 25 14 2 23 11 25 26 3 21 12 26 40 23 7 -1 12 9 12 23 0 23 4 25 48 28 40
3 47 6 50 26 2 16 10 22 27 22 37 0 75 18 75 35 0 9 12 18 30 21 16 4 29 9 28
13 -2 21 5 30 25 33 21 3 22 8 22 83 0 75 -1 80 -22 83 -16 2 -23 10 -23 25 0
42 -12 65 -36 71 -15 4 -24 14 -24 25 0 13 -8 21 -22 23 -17 2 -24 11 -26 31
-3 21 -9 27 -28 27 -20 0 -24 5 -24 29 0 23 -5 30 -22 33 -17 2 -24 11 -26 31
-2 19 -8 27 -17 23 -18 -7 -32 12 -37 49 -1 17 -9 31 -15 31 -7 1 -17 2 -22 3
-5 0 -11 11 -13 24 -2 14 -10 22 -23 22 -14 0 -21 9 -25 30 -4 22 -11 29 -23
27 -12 -2 -21 7 -28 26 -6 18 -17 29 -27 28 -10 0 -20 11 -27 29 -7 20 -17 30
-30 30 -13 0 -22 8 -25 25 -3 17 -12 25 -25 25 -16 0 -21 8 -25 45 -3 26 -10
46 -17 46 -7 1 -17 2 -23 3 -5 0 -10 10 -10 20 0 13 -8 21 -22 23 -16 2 -24
11 -26 30 -2 19 -10 28 -25 30 -14 2 -23 11 -25 25 -2 13 -11 23 -25 25 -13 2
-23 12 -27 28 -3 14 -11 26 -18 26 -7 1 -16 2 -21 3 -5 0 -11 13 -13 29 -2 19
-9 28 -24 30 -16 2 -24 13 -28 38 -4 20 -11 32 -17 28 -13 -7 -38 25 -39 49 0
10 -12 22 -26 27 -25 10 -173 12 -207 3z"/>
<path d="M7163 9650 c-13 -5 -23 -17 -23 -27 -1 -23 -28 -59 -37 -49 -4 4 -13
-8 -19 -26 -6 -18 -17 -33 -25 -33 -19 0 -29 -15 -29 -42 0 -18 -6 -23 -24
-23 -19 0 -25 -6 -28 -27 -2 -20 -9 -29 -25 -31 -14 -2 -23 -11 -25 -25 -2
-14 -11 -23 -25 -25 -15 -2 -23 -11 -25 -30 -2 -19 -10 -28 -25 -30 -15 -2
-23 -10 -23 -23 0 -10 -4 -20 -10 -20 -5 -1 -16 -2 -22 -3 -8 0 -15 -20 -18
-46 -4 -37 -9 -45 -25 -45 -13 0 -22 -8 -25 -25 -3 -17 -12 -25 -25 -25 -13 0
-23 -10 -30 -30 -7 -18 -17 -29 -27 -29 -10 1 -21 -10 -27 -28 -7 -19 -16 -28
-28 -26 -12 2 -19 -5 -23 -27 -4 -21 -11 -30 -25 -30 -13 0 -21 -8 -23 -22 -2
-13 -8 -24 -13 -24 -5 -1 -15 -2 -21 -3 -7 0 -15 -14 -16 -31 -5 -37 -19 -56
-37 -49 -9 4 -15 -4 -17 -23 -2 -20 -9 -29 -25 -31 -18 -3 -23 -10 -23 -33 0
-24 -4 -29 -25 -29 -20 0 -25 -5 -25 -25 0 -24 -3 -27 -32 -29 -7 -1 -15 -12
-18 -26 -3 -16 -13 -26 -27 -28 -13 -2 -24 -13 -27 -28 -4 -15 -14 -24 -25
-24 -24 0 -31 -26 -31 -120 0 -80 4 -93 33 -103 10 -4 15 -11 12 -17 -3 -5 0
-11 7 -11 7 -1 18 -2 23 -4 6 -1 16 -3 23 -3 6 -1 12 -9 12 -17 0 -17 38 -35
75 -35 17 0 25 -6 27 -22 2 -19 11 -24 48 -28 39 -4 45 -8 44 -27 0 -19 5 -23
27 -23 21 0 28 -5 31 -22 2 -15 10 -23 22 -23 14 0 22 -10 28 -32 6 -22 15
-33 31 -35 14 -2 21 -9 20 -21 -1 -13 4 -17 14 -13 20 8 43 -11 43 -35 0 -11
9 -19 22 -21 12 -2 25 -12 28 -23 3 -11 11 -20 18 -21 29 -2 32 -5 32 -32 0
-23 4 -28 23 -28 15 1 23 -5 25 -21 2 -14 11 -23 25 -25 16 -2 23 -11 25 -31
2 -15 9 -27 15 -26 29 3 36 -3 39 -38 2 -30 7 -37 20 -35 12 2 19 -6 24 -25 3
-15 7 -32 8 -38 2 -5 11 -10 22 -10 11 0 20 -8 22 -20 8 -52 13 -64 25 -59 13
5 37 -34 37 -61 0 -7 10 -15 23 -17 14 -2 23 -11 25 -25 4 -27 30 -35 98 -31
40 2 51 7 59 26 6 13 20 25 32 28 12 4 23 15 25 27 2 14 11 23 23 23 11 1 25
2 32 3 7 1 10 8 7 16 -4 10 0 15 14 15 12 0 24 5 27 10 3 6 15 10 25 10 13 0
22 9 26 25 4 18 13 25 29 25 17 0 25 7 27 23 2 18 11 23 43 27 29 4 43 11 50
28 6 13 20 25 33 29 13 3 22 13 22 24 0 13 7 19 24 19 19 0 25 6 28 28 3 23 8
27 33 27 21 0 29 4 28 15 -2 11 11 20 41 29 29 8 47 21 55 37 6 14 19 24 31
24 13 0 20 7 20 20 0 11 5 21 10 21 6 1 15 2 22 3 7 0 15 12 18 26 5 20 13 25
39 27 47 2 61 10 61 33 0 15 7 20 25 20 20 0 25 5 25 25 0 22 4 25 35 25 29 0
35 4 33 18 -2 11 3 17 15 16 9 -1 17 2 17 7 0 5 9 9 20 9 12 0 26 12 35 31 10
19 22 29 31 25 9 -3 16 3 20 19 4 17 13 25 28 25 41 0 66 13 72 36 4 13 15 24
27 26 14 2 23 11 25 26 3 16 10 22 28 22 24 0 24 2 24 86 0 72 -2 85 -15 80
-18 -6 -35 22 -35 58 0 18 -6 25 -22 28 -17 2 -24 11 -26 31 -2 15 -9 27 -15
26 -29 -3 -36 3 -39 39 -2 28 -7 36 -20 34 -12 -2 -20 8 -28 38 -6 22 -14 39
-18 39 -21 -3 -30 3 -36 25 -3 14 -13 23 -22 22 -10 0 -21 11 -28 29 -7 20
-18 30 -31 30 -13 0 -22 8 -25 25 -3 17 -12 25 -25 25 -14 0 -21 8 -23 28 -2
15 -9 27 -15 26 -29 -3 -37 3 -37 26 0 15 -5 25 -12 24 -29 -4 -38 2 -38 26 0
20 -5 25 -25 25 -20 0 -25 5 -25 25 0 20 -5 25 -25 25 -20 0 -25 5 -25 25 0
20 -5 25 -24 25 -18 0 -25 6 -28 23 -2 14 -11 23 -25 25 -12 2 -23 13 -27 26
-3 14 -16 26 -31 30 -16 4 -25 13 -25 25 0 12 -9 21 -25 25 -14 4 -25 11 -25
16 0 5 -7 7 -15 4 -10 -4 -18 3 -24 19 -6 15 -19 27 -33 29 -15 2 -22 9 -22
21 1 12 -6 17 -26 17 -22 0 -29 5 -32 22 -2 17 -14 25 -48 33 -32 8 -45 16
-44 28 1 12 -6 17 -26 17 -21 0 -29 6 -34 25 -4 16 -13 25 -26 25 -12 0 -24
10 -29 24 -5 13 -20 26 -33 29 -34 10 -180 7 -205 -3z"/>
<path d="M1207 7803 c-4 -3 -7 -15 -7 -25 0 -12 -7 -18 -23 -18 -20 0 -25 -7
-33 -47 -6 -32 -14 -48 -24 -48 -17 0 -27 -31 -29 -87 -1 -30 -5 -37 -23 -40
-20 -3 -24 -10 -28 -58 -4 -47 -8 -55 -25 -55 -16 0 -21 -8 -23 -40 -4 -46
-17 -66 -38 -58 -11 4 -14 -6 -14 -48 0 -62 -10 -82 -33 -73 -14 5 -17 -5 -19
-73 -3 -72 -5 -78 -25 -81 -18 -3 -23 -10 -23 -33 0 -44 -18 -73 -35 -59 -12
10 -15 0 -17 -57 -3 -60 -5 -68 -24 -71 -18 -3 -22 -12 -27 -59 -6 -60 -22
-88 -36 -64 -6 9 -12 -13 -16 -62 -6 -67 -10 -76 -29 -79 -18 -3 -21 -11 -24
-53 -3 -50 -13 -70 -35 -70 -8 0 -14 -24 -17 -65 -4 -58 -7 -65 -27 -68 -20
-3 -23 -9 -23 -47 0 -54 8 -75 25 -69 7 3 18 -10 28 -34 18 -46 30 -52 102
-52 48 0 54 -2 57 -22 3 -20 10 -23 49 -26 38 -2 48 -7 57 -27 9 -20 19 -25
49 -25 30 0 40 -5 48 -22 8 -18 19 -24 55 -26 36 -2 48 -8 55 -25 9 -19 19
-22 77 -25 60 -3 67 -5 70 -25 3 -19 10 -22 50 -25 41 -3 49 -7 54 -28 5 -20
13 -24 48 -26 22 -1 53 -1 68 0 20 1 27 -3 30 -20 2 -15 16 -26 50 -37 50 -17
70 -31 47 -32 -31 -1 29 -18 69 -18 34 -1 42 -4 42 -20 0 -22 19 -31 66 -31
24 0 37 -5 41 -17 10 -28 24 -33 84 -33 51 0 57 -2 63 -24 5 -19 14 -25 56
-30 41 -5 50 -10 50 -26 0 -17 7 -20 48 -20 42 0 51 -4 62 -25 11 -21 21 -25
56 -25 24 0 46 -4 49 -10 3 -5 16 -10 28 -10 22 -1 22 -1 3 -15 -18 -14 -15
-15 42 -15 56 0 62 2 67 23 4 13 19 28 36 34 29 11 29 12 29 90 0 79 10 106
36 96 11 -4 14 22 16 134 3 135 4 138 26 141 20 3 22 9 22 55 0 59 11 83 34
74 14 -6 16 5 16 86 0 67 4 99 15 113 12 15 16 16 23 6 6 -9 11 14 14 63 5 78
21 113 38 85 6 -10 10 17 12 80 3 90 4 95 25 98 23 3 29 17 35 72 2 16 9 25
20 24 17 -2 22 19 30 111 2 22 8 30 23 30 19 0 20 8 23 112 l3 112 -28 13
c-15 8 -27 20 -26 26 3 13 -33 25 -63 22 -35 -4 -43 0 -46 23 -3 19 -10 22
-50 25 -39 3 -47 7 -52 28 -6 21 -12 24 -49 24 -34 0 -44 4 -52 23 -8 17 -20
23 -53 25 -35 3 -45 8 -52 28 -8 20 -16 24 -54 24 -39 0 -45 3 -48 23 -3 19
-10 22 -50 25 -39 3 -47 7 -52 28 -5 20 -13 24 -49 25 -61 1 -92 13 -91 32 1
11 -6 17 -21 17 -21 0 -78 39 -59 41 30 2 -40 18 -83 18 -50 1 -53 3 -53 26 0
20 -5 25 -25 25 -14 0 -25 4 -25 9 0 26 -34 41 -90 41 -53 0 -59 2 -62 22 -2
19 -12 25 -51 32 -41 7 -48 12 -44 27 5 17 -1 19 -54 19 -56 0 -59 1 -59 25 0
19 -5 25 -22 25 -29 1 -62 25 -53 39 7 12 -117 16 -128 4z"/>
<path d="M8905 7799 c9 -14 -24 -38 -52 -39 -18 0 -23 -6 -23 -25 0 -24 -3
-25 -59 -25 -53 0 -59 -2 -54 -19 4 -15 -3 -20 -44 -27 -39 -7 -49 -13 -51
-31 -3 -20 -10 -22 -70 -25 -58 -3 -68 -6 -77 -25 -6 -14 -18 -23 -32 -23 -18
0 -23 -6 -23 -25 0 -23 -3 -25 -52 -26 -44 0 -114 -16 -84 -18 19 -2 -38 -41
-59 -41 -15 0 -22 -6 -21 -17 1 -19 -30 -31 -91 -32 -32 -1 -43 -6 -48 -20 -4
-13 -20 -22 -53 -28 -38 -6 -48 -12 -50 -31 -3 -19 -9 -22 -48 -22 -38 0 -46
-4 -54 -24 -7 -20 -17 -25 -52 -28 -33 -2 -45 -8 -53 -25 -8 -19 -18 -23 -52
-23 -37 0 -43 -3 -49 -24 -5 -21 -13 -25 -52 -28 -40 -3 -47 -6 -50 -25 -3
-23 -11 -27 -46 -23 -30 3 -66 -9 -63 -22 1 -6 -11 -18 -26 -26 l-28 -13 3
-107 c3 -99 4 -107 23 -107 16 0 21 -8 23 -35 6 -93 13 -118 30 -116 11 1 18
-8 20 -24 6 -55 12 -69 35 -72 21 -3 22 -8 25 -98 2 -63 6 -90 12 -80 17 28
33 -7 38 -85 3 -49 8 -72 14 -63 7 10 11 9 23 -6 11 -15 15 -47 15 -119 0 -81
2 -97 13 -88 22 18 37 -8 37 -65 0 -47 2 -53 23 -56 21 -3 22 -6 25 -141 2
-132 4 -138 22 -132 24 8 29 -11 32 -115 3 -73 4 -75 30 -78 18 -2 28 -11 32
-28 6 -22 11 -24 68 -24 57 0 60 1 42 15 -19 14 -19 14 3 15 12 0 25 5 28 10
3 6 24 10 47 10 34 0 38 2 29 14 -17 20 -1 28 75 34 53 4 64 8 64 23 0 14 11
20 50 25 42 5 51 11 56 30 6 22 12 24 63 24 60 0 74 6 84 32 3 9 18 18 34 20
17 2 28 9 28 18 0 14 19 20 134 37 25 3 31 7 21 13 -16 10 -19 8 55 33 28 10
41 20 43 35 3 17 10 21 30 20 74 -5 102 2 114 27 9 20 19 25 57 27 39 3 46 6
49 25 3 20 10 22 70 25 58 3 68 6 77 26 7 15 18 22 37 22 20 0 27 6 30 23 3
20 9 22 66 25 55 3 64 6 74 27 9 20 19 25 57 27 39 3 46 6 49 26 3 20 9 22 57
22 70 0 82 6 101 47 10 20 22 32 30 29 22 -8 35 66 14 79 -5 3 -10 1 -10 -6 0
-10 -3 -10 -12 -1 -7 7 -15 51 -18 100 -3 48 -9 87 -15 87 -22 0 -35 18 -35
48 0 53 -10 75 -30 70 -15 -4 -18 5 -25 71 -5 58 -10 74 -21 69 -18 -7 -34 35
-34 87 0 32 -3 38 -16 33 -24 -9 -34 15 -34 86 0 54 -2 62 -14 52 -12 -10 -17
-8 -25 8 -6 11 -11 33 -11 50 0 23 -5 30 -22 33 -21 3 -23 9 -26 81 -2 64 -6
78 -17 73 -21 -8 -35 25 -35 78 0 39 -3 45 -22 48 -19 2 -24 11 -28 48 -4 37
-9 45 -25 45 -17 0 -21 8 -25 55 -4 48 -8 55 -27 58 -19 3 -23 10 -24 40 -2
56 -12 87 -29 87 -10 0 -18 16 -24 48 -7 36 -14 47 -28 47 -10 0 -24 11 -30
25 -10 23 -17 25 -75 25 -43 0 -62 -4 -58 -11z"/>
<path d="M346 5495 c-8 -9 -18 -38 -22 -66 -7 -52 -20 -71 -35 -48 -5 9 -9
-12 -10 -56 -2 -131 -12 -190 -31 -189 -19 2 -26 -25 -31 -116 -1 -41 -6 -55
-17 -55 -22 0 -28 -28 -29 -142 -1 -103 -3 -108 -37 -104 -8 1 -13 -32 -16
-99 -2 -60 -9 -105 -16 -112 -9 -9 -12 -8 -12 7 0 12 -3 16 -10 9 -5 -5 -11
-88 -12 -184 -3 -167 -4 -175 -23 -175 -18 0 -21 -9 -28 -115 -5 -63 -10 -271
-13 -462 l-5 -348 1103 0 c607 0 1108 4 1114 8 6 4 14 24 18 44 8 42 24 58 37
37 5 -8 9 218 10 536 2 693 8 880 29 880 26 0 30 17 29 135 -1 157 -4 164 -61
168 -37 2 -47 7 -56 27 -11 24 -16 25 -92 25 -86 0 -125 12 -116 36 4 12 -15
14 -119 14 -121 0 -124 1 -127 23 -3 20 -9 22 -68 25 -69 2 -110 17 -110 39 0
10 -26 13 -114 13 -111 0 -115 1 -118 22 -4 28 -31 36 -126 37 -64 1 -75 4
-79 20 -6 24 -41 31 -159 31 -88 0 -93 1 -96 23 -3 19 -10 23 -58 27 -52 5
-115 29 -80 30 13 0 13 1 0 10 -8 5 -61 10 -117 10 -98 0 -102 1 -105 23 -3
21 -8 22 -89 25 -69 2 -90 -1 -103 -13z"/>
<path d="M9707 5503 c-4 -3 -7 -15 -7 -25 0 -16 -10 -18 -102 -18 -57 0 -110
-5 -118 -10 -13 -9 -13 -10 0 -10 35 -1 -28 -25 -80 -30 -48 -4 -55 -8 -58
-27 -3 -22 -8 -23 -96 -23 -118 0 -153 -7 -159 -31 -4 -16 -15 -19 -79 -20
-95 -1 -122 -9 -126 -37 -3 -21 -7 -22 -120 -22 -112 0 -118 -1 -127 -22 -9
-20 -19 -24 -85 -28 -68 -5 -75 -7 -78 -27 -3 -22 -6 -23 -127 -23 -104 0
-123 -2 -119 -14 9 -24 -30 -36 -116 -36 -76 0 -81 -1 -92 -25 -9 -21 -18 -25
-55 -25 -57 0 -63 -16 -63 -165 0 -125 4 -145 29 -145 16 0 18 -22 24 -242 4
-133 7 -452 7 -709 0 -432 1 -467 17 -465 11 1 20 -11 27 -34 5 -19 15 -38 20
-42 6 -4 507 -8 1114 -8 l1103 0 -5 333 c-7 482 -13 587 -33 580 -27 -11 -33
20 -33 184 0 97 -4 164 -10 168 -5 3 -10 -2 -10 -11 0 -13 -3 -15 -11 -7 -6 6
-14 61 -17 122 -4 102 -6 110 -26 113 -19 3 -21 11 -27 113 -8 134 -5 123 -26
121 -15 -1 -18 8 -21 49 -4 87 -11 113 -30 111 -14 -1 -18 11 -23 64 -4 36 -7
99 -8 140 -1 47 -5 70 -10 61 -15 -23 -28 -4 -35 48 -10 73 -22 81 -120 81
-45 0 -86 -3 -89 -7z"/>
<path d="M0 1040 l0 -1040 220 0 220 0 0 266 c0 247 1 265 18 262 9 -2 18 -13
20 -25 2 -14 12 -23 25 -25 14 -2 23 -11 25 -25 2 -14 11 -23 25 -25 18 -2 23
-11 25 -41 3 -30 9 -40 29 -48 14 -5 27 -18 30 -29 3 -11 14 -20 24 -20 14 0
21 -9 25 -29 4 -21 13 -31 28 -33 13 -2 22 -11 24 -25 2 -14 11 -23 25 -25 14
-2 23 -11 25 -25 2 -14 11 -23 25 -25 14 -2 23 -11 25 -25 2 -14 11 -23 25
-25 16 -2 23 -11 25 -31 3 -22 7 -27 23 -22 12 4 21 1 25 -9 5 -14 34 -16 215
-16 l209 0 0 115 0 115 -25 0 c-20 0 -25 5 -25 24 0 18 -6 25 -22 28 -15 2
-24 11 -26 26 -3 16 -10 22 -28 22 -19 0 -24 5 -24 24 0 18 -6 26 -22 28 -14
2 -24 12 -28 28 -4 16 -13 25 -25 25 -12 0 -21 9 -25 25 -4 15 -14 26 -27 28
-12 2 -24 13 -27 27 -4 15 -15 25 -29 27 -14 2 -23 11 -25 25 -2 14 -11 23
-25 25 -14 2 -23 11 -25 25 -2 13 -11 23 -25 25 -12 2 -23 10 -25 19 -4 23 48
79 75 79 15 0 23 7 25 22 2 15 11 24 25 26 15 2 25 13 29 28 4 17 13 24 30 24
19 0 24 5 24 24 0 18 6 25 22 28 17 2 24 12 28 33 4 21 11 31 28 33 17 3 22
10 22 32 0 16 5 41 10 55 9 23 13 25 25 15 13 -11 15 4 15 119 0 133 1 136 38
132 8 -1 12 18 12 68 0 60 -2 70 -16 64 -27 -10 -34 17 -34 134 0 99 -2 112
-16 106 -21 -8 -34 13 -34 54 0 28 -3 32 -22 30 -20 -2 -23 3 -26 37 -2 27 -9
40 -22 43 -10 3 -25 19 -34 36 -9 18 -16 28 -16 24 0 -5 -7 -1 -16 7 -8 9 -28
16 -44 16 -22 0 -29 5 -32 23 -3 19 -10 22 -50 25 -39 3 -47 6 -50 25 -2 17
-11 23 -38 25 -97 7 -120 13 -120 33 0 18 -11 19 -370 19 l-370 0 0 -1040z
m591 598 c5 -8 2 -15 -9 -20 -9 -4 22 -7 71 -7 86 -1 87 -1 87 -26 0 -20 5
-25 25 -25 l25 0 -2 -202 c-3 -195 -4 -203 -23 -203 -13 0 -22 -8 -25 -25 -4
-18 -13 -26 -33 -28 -15 -2 -25 -7 -23 -11 14 -22 -17 -30 -124 -32 l-115 -3
-3 304 -2 303 71 -6 c43 -4 76 -11 80 -19z"/>
<path d="M1483 2056 l-28 -24 -3 -1016 -2 -1016 620 0 620 0 -2 193 -3 192
-378 0 -377 0 0 227 0 228 278 2 277 3 0 205 0 205 -277 3 -278 2 0 193 0 192
252 -3 c139 -1 282 -4 318 -5 36 -2 -69 -4 -232 -5 -191 -1 -298 -6 -298 -12
0 -6 115 -10 328 -9 248 0 323 3 310 12 -14 9 -10 13 30 26 l47 16 3 181 2
182 -31 26 -31 26 -558 0 -559 0 -28 -24z"/>
<path d="M2849 2063 c-12 -13 -14 -190 -17 -1040 l-3 -1023 456 0 c506 0 585
6 585 47 0 20 5 23 38 23 44 0 58 8 63 35 3 11 14 21 26 23 13 2 24 13 27 28
4 14 14 24 24 24 11 0 24 13 33 33 8 17 20 31 27 30 11 -3 19 17 24 67 2 17
10 26 26 28 18 3 22 10 22 41 0 40 15 62 36 54 10 -4 14 14 16 79 3 79 4 83
26 82 21 -1 22 3 22 90 0 50 3 101 6 114 7 24 29 30 37 10 3 -7 6 88 6 212 0
154 -2 220 -9 210 -9 -13 -12 -12 -25 4 -11 15 -15 47 -15 119 0 80 -3 98 -14
94 -25 -10 -36 16 -36 88 0 68 -1 72 -22 71 -21 -1 -23 4 -26 52 -3 48 -5 52
-28 52 -20 0 -24 5 -24 28 0 32 -10 47 -30 47 -9 0 -17 16 -23 43 -6 33 -13
42 -29 42 -11 0 -22 8 -25 20 -5 20 -54 50 -81 50 -8 0 -12 6 -9 14 6 16 -4
21 -65 32 -28 4 -38 11 -38 25 0 15 -7 19 -35 19 -19 0 -35 4 -35 9 0 5 -7 17
-16 25 -14 14 -68 16 -448 16 -391 0 -435 -2 -447 -17z m666 -413 c3 -5 21
-10 38 -10 l32 -1 -30 -14 c-29 -13 -28 -13 38 -14 61 -1 67 -3 67 -22 0 -11
4 -17 10 -14 17 10 40 -15 40 -42 0 -13 4 -22 9 -19 5 4 16 3 25 0 13 -5 16
-21 16 -76 0 -60 2 -69 14 -59 26 21 36 -21 36 -142 0 -109 1 -115 20 -110 26
7 32 -19 28 -142 -3 -96 -4 -100 -25 -99 -22 1 -23 -2 -23 -107 0 -121 -11
-169 -35 -149 -13 11 -15 6 -15 -38 0 -49 -18 -81 -39 -68 -6 4 -11 -11 -13
-36 -3 -43 -3 -43 -46 -46 -35 -3 -45 -8 -52 -28 -9 -22 -14 -24 -80 -24 -66
0 -70 -1 -76 -25 -6 -24 -10 -25 -75 -25 l-69 0 0 660 0 660 99 0 c56 0 103
-4 106 -10z"/>
<path d="M4480 2054 c-6 -16 -10 -405 -10 -1040 l0 -1014 241 0 241 0 -3 400
c-1 220 0 403 4 406 4 4 13 1 22 -6 11 -9 15 -34 15 -101 0 -72 3 -87 14 -83
21 8 36 -27 36 -82 0 -37 3 -44 13 -35 26 21 37 -10 38 -109 0 -52 3 -89 6
-82 8 20 30 14 37 -10 3 -13 6 -40 6 -60 0 -30 3 -36 16 -31 25 9 34 -16 34
-100 0 -74 1 -78 20 -72 16 5 20 2 20 -14 0 -21 4 -21 215 -21 l214 0 3 62 c3
56 5 63 25 66 23 3 29 20 35 97 2 21 8 30 20 29 18 -2 26 30 31 131 2 43 5 50
22 50 17 0 20 8 23 50 3 50 13 70 35 70 8 0 14 26 17 75 5 68 7 75 28 78 19 3
22 9 22 50 0 63 19 130 31 111 5 -8 9 -206 9 -441 l0 -428 235 0 235 0 0 1024
c0 918 -2 1026 -16 1040 -13 14 -50 16 -248 16 -167 0 -235 -3 -244 -12 -7 -7
-12 -29 -12 -49 0 -37 -21 -66 -40 -54 -6 4 -10 -11 -10 -42 0 -49 -21 -95
-37 -80 -4 5 -12 -26 -18 -70 -8 -64 -13 -78 -27 -77 -19 2 -26 -23 -30 -106
-2 -36 -7 -45 -21 -44 -20 2 -26 -17 -29 -96 -3 -48 -6 -55 -25 -58 -20 -3
-23 -9 -23 -48 0 -53 -14 -86 -35 -78 -12 5 -15 -10 -17 -83 -3 -83 -4 -88
-25 -91 -20 -3 -23 -9 -23 -50 0 -54 -11 -77 -34 -69 -13 5 -16 -7 -18 -86 -3
-86 -4 -92 -25 -95 -17 -2 -23 -12 -28 -44 -6 -36 -9 -39 -18 -22 -6 10 -13
51 -16 89 -5 61 -8 70 -26 70 -16 0 -21 7 -22 35 -8 102 -15 143 -24 129 -13
-21 -29 6 -29 51 0 40 -9 55 -30 55 -19 0 -27 39 -29 135 -1 59 -4 71 -12 56
-15 -25 -26 -6 -35 60 -5 43 -9 50 -27 50 -21 -1 -22 4 -25 92 -2 79 -5 92
-17 82 -20 -16 -35 17 -35 78 0 44 -2 49 -22 48 -22 -1 -23 3 -26 87 -3 80 -4
88 -21 82 -21 -6 -31 17 -31 72 0 21 -7 37 -22 47 -12 9 -18 16 -13 16 6 0 3
5 -5 10 -9 6 -113 10 -243 10 l-227 0 -10 -26z"/>
<path d="M6710 2073 c-8 -3 -18 -11 -22 -17 -4 -6 -8 -471 -8 -1033 l0 -1023
235 0 235 0 0 1021 c0 684 -3 1027 -10 1040 -10 18 -23 19 -213 18 -111 0
-209 -3 -217 -6z"/>
<path d="M7400 2054 c-6 -16 -10 -405 -10 -1040 l0 -1014 240 0 241 0 -1 497
c0 274 -1 509 0 522 0 47 27 2 34 -58 5 -46 10 -58 23 -57 19 1 30 -30 32 -86
1 -30 4 -35 20 -31 14 4 20 -3 25 -27 3 -18 6 -43 6 -55 0 -18 4 -22 19 -18
22 6 31 -19 31 -91 0 -41 2 -47 14 -37 20 17 36 -15 36 -72 0 -39 2 -44 23
-43 20 1 22 -4 25 -57 3 -49 6 -58 19 -53 22 9 33 -11 33 -56 0 -30 4 -37 23
-40 18 -2 22 -10 25 -43 4 -65 10 -83 29 -81 14 1 19 -8 21 -34 1 -19 5 -45 7
-57 l5 -23 260 0 260 0 -2 1003 c-3 986 -3 1002 -23 1024 -11 12 -26 29 -33
37 -11 14 -43 16 -210 16 -108 0 -207 -3 -219 -6 -15 -4 -26 -18 -33 -43 -6
-21 -10 -203 -10 -453 0 -258 -4 -418 -10 -418 -12 0 -30 65 -30 108 0 21 -4
31 -10 27 -21 -13 -40 17 -40 61 0 33 -3 42 -14 38 -20 -8 -36 26 -36 74 0 34
-3 38 -22 38 -22 -1 -23 4 -26 72 -2 61 -5 72 -17 62 -19 -16 -35 16 -35 69 0
33 -3 40 -22 43 -20 3 -23 10 -26 55 -3 45 -6 52 -25 55 -18 3 -23 11 -27 53
-4 41 -9 51 -26 53 -18 2 -23 12 -28 52 -4 30 -12 50 -22 54 -9 3 -121 6 -250
6 l-234 0 -10 -26z"/>
<path d="M9090 2061 c-7 -13 -10 -356 -10 -1040 l0 -1021 580 0 580 0 0 195 0
195 -345 0 -345 0 0 225 0 225 258 2 257 3 0 205 0 205 -257 3 -258 2 0 168
c0 92 3 177 6 190 l6 22 339 0 339 0 0 220 0 220 -570 0 c-553 0 -570 -1 -580
-19z"/>
</g>
</svg>
